<svg display="none" version="1.1" xmlns="http://www.w3.org/2000/svg" xmlns:xlink="http://www.w3.org/1999/xlink">
	<defs>
		<symbol id="icon-loader" viewBox="0 0 50 50">
			<title>loader</title>
			<path d="M43.935,25.145c0-10.318-8.364-18.683-18.683-18.683c-10.318,0-18.683,8.365-18.683,18.683h4.068c0-8.071,6.543-14.615,14.615-14.615c8.072,0,14.615,6.543,14.615,14.615H43.935z">
			</path>
		</symbol>
		<symbol id="icon-block-u" viewBox="-144 213 43.5 39.5">
			<polygon fill="#CC0000" points="-144,213 -144,224.9 -140,224.9 -140,244.6 -132.1,252.5 -112.4,252.5 -104.5,244.6 -104.5,224.9 
				-100.5,224.9 -100.5,213 -120.3,213 -120.3,224.9 -116.3,224.9 -116.3,240.6 -128.2,240.6 -128.2,224.9 -124.2,224.9 -124.2,213 "/>
		</symbol>
		<symbol id="icon-circle-checkmark" viewBox="0 0 79.536 79.536">
			<path d="M39.769,0C17.8,0,0,17.8,0,39.768c0,21.965,17.8,39.768,39.769,39.768
				c21.965,0,39.768-17.803,39.768-39.768C79.536,17.8,61.733,0,39.769,0z M34.142,58.513L15.397,39.768l7.498-7.498l11.247,11.247
				l22.497-22.493l7.498,7.498L34.142,58.513z"/>
		</symbol>
		<symbol id="icon-react" viewBox="0 0 600 600">
			<rect fill="#222222" width="600" height="600"/>
			<circle fill="#00D8FF" cx="299.529" cy="299.628" r="50.167"/>
			<path fill="none" stroke="#00D8FF" stroke-width="24" stroke-miterlimit="10" d="M299.529,197.628
				c67.356,0,129.928,9.665,177.107,25.907c56.844,19.569,91.794,49.233,91.794,76.093c0,27.991-37.041,59.503-98.083,79.728
				c-46.151,15.291-106.879,23.272-170.818,23.272c-65.554,0-127.63-7.492-174.29-23.441c-59.046-20.182-94.611-52.103-94.611-79.559
				c0-26.642,33.37-56.076,89.415-75.616C167.398,207.503,231.515,197.628,299.529,197.628z"/>
			<path fill="none" stroke="#00D8FF" stroke-width="24" stroke-miterlimit="10" d="M210.736,248.922
				c33.649-58.348,73.281-107.724,110.92-140.48c45.35-39.466,88.507-54.923,111.775-41.505
				c24.248,13.983,33.042,61.814,20.067,124.796c-9.81,47.618-33.234,104.212-65.176,159.601
				c-32.749,56.788-70.25,106.819-107.377,139.272c-46.981,41.068-92.4,55.929-116.185,42.213
				c-23.079-13.31-31.906-56.921-20.834-115.233C153.281,368.316,176.758,307.841,210.736,248.922z"/>
			<path fill="none" stroke="#00D8FF" stroke-width="24" stroke-miterlimit="10" d="M210.821,351.482
				c-33.746-58.292-56.731-117.287-66.312-166.255c-11.544-58.999-3.382-104.109,19.864-117.566
				c24.224-14.024,70.055,2.244,118.14,44.94c36.356,32.28,73.688,80.837,105.723,136.173c32.844,56.733,57.461,114.209,67.036,162.582
				c12.117,61.213,2.309,107.984-21.453,121.74c-23.057,13.348-65.249-0.784-110.239-39.499
				C285.567,460.886,244.898,410.344,210.821,351.482z"/>
		</symbol>
	</defs>
</svg>